<svg xmlns="http://www.w3.org/2000/svg" version="1.1" xmlns:xlink="http://www.w3.org/1999/xlink" xmlns:svgjs="http://svgjs.dev/svgjs" width="100%" height="100%" viewBox="0 0 1000 600"><rect width="1000" height="600" x="0" y="0" fill="#fff748"/><g><rect width="333.3333333333333" height="333.3333333333333" rx="13.333333333333334" ry="13.333333333333334" y="140.2959283497433" fill="#3c1a5b" transform="matrix(1.058660911116939,0,0,1.058660911116939,0,-24.969291202407703)" x="118.07371520996094"/><path d="M286.01352956503 381.9625942828913L286.01352956503 381.9625942828913Q271.27587564891667 381.9625942828913 259.4703204176845 376.7156808467881Q247.6647651864523 371.43018716483124 239.21569134449203 361.5536442262841Q230.72803725667808 351.7156815335906 226.1369880000878 337.94253376381977Q221.5459387434975 324.20796623990253 221.5459387434975 306.96259634329874L221.5459387434975 306.96259634329874Q221.5459387434975 290.02586841352445 226.1369880000878 276.13697990619255Q230.72803725667808 262.24809139886054 239.21569134449203 252.4101287061671Q247.6647651864523 242.53358576761988 259.4703204176845 237.24809208566302Q271.27587564891667 231.96259840370612 286.01352956503 231.96259840370612L286.01352956503 231.96259840370612Q300.4425415143138 231.96259840370612 311.8237140411552 237.24809208566302Q323.24346681385043 242.53358576761988 331.26815795142 251.83142501836159Q339.3314293348432 261.12926426910326 343.6524168704576 273.9379058925316Q347.93482416021834 286.70796727010634 347.93482416021834 301.98574462817146L347.93482416021834 301.98574462817146L347.93482416021834 312.51815174623147L244.88698748498592 312.51815174623147L244.88698748498592 319.19253427892164Q244.88698748498592 328.3746327921022 247.81908616986712 336.2835831921106Q250.71260460889462 344.1925335921191 256.1524192742663 350.01815071602783Q261.55365369378427 355.88234808579017 269.4626040937927 359.2002492292084Q277.41013473965495 362.5181503726266 287.40241841576324 362.5181503726266L287.40241841576324 362.5181503726266Q301.0212452021193 362.5181503726266 311.12926961578864 356.1524098067661Q321.2758742753117 349.7480889950519 326.8314296782445 337.8267930262586L326.8314296782445 337.8267930262586L342.6879107241151 349.2079655531001Q335.7434664704491 363.90703922335973 321.00581255433576 372.9348167531255Q306.2681586382224 381.9625942828913 286.01352956503 381.9625942828913ZM286.01352956503 250.5968571510432L286.01352956503 250.5968571510432Q276.83143105184945 250.5968571510432 269.34686335623167 253.79901755690028Q261.82371541476016 256.9625977169037 256.42248099524215 262.82679508666604Q251.0212465757242 268.65241221057477 247.93482690742823 276.56136261058316Q244.88698748498592 284.47031301059167 244.88698748498592 293.9224732447482L244.88698748498592 293.9224732447482L244.88698748498592 295.8514855374332L324.05365197677804 295.8514855374332L324.05365197677804 292.8036461149909Q324.05365197677804 273.62926392570205 313.63698559627915 262.1323506612995Q303.22031921578014 250.5968571510432 286.01352956503 250.5968571510432Z " fill="#fff748" transform="matrix(1.058660911116939,0,0,1.058660911116939,0,-24.969291202407703)"/><path d="M578.3696303489535 344.3646916103957L578.3696303489535 344.3646916103957Q568.3957394797123 344.3646916103957 560.406182919535 340.8137775836503Q552.4166263593576 337.2367538949433 546.6986103898189 330.55268043283417Q540.9544847583188 323.8947166326863 537.8474349849164 314.5735673124794Q534.7403852115142 305.2785276542337 534.7403852115142 293.607508757504L534.7403852115142 293.607508757504Q534.7403852115142 282.1453671564652 537.8474349849164 272.7458888503742Q540.9544847583188 263.3464105442831 546.6986103898189 256.68844674413526Q552.4166263593576 250.00437328202602 560.406182919535 246.42734959331918Q568.3957394797123 242.85032590461228 578.3696303489535 242.85032590461228L578.3696303489535 242.85032590461228Q588.1346439225035 242.85032590461228 595.836994201106 246.42734959331918Q603.5654541416698 250.00437328202602 608.9962638296336 256.2968018147148Q614.4531831795586 262.5892303474035 617.3774653192313 271.2576381185763Q620.2756377969428 279.89993622778786 620.2756377969428 290.239362364488L620.2756377969428 290.239362364488L620.2756377969428 297.3673000799404L550.5367306981393 297.3673000799404L550.5367306981393 301.8842715992564Q550.5367306981393 308.098371146061 552.5210650072031 313.45085184814064Q554.4792896543054 318.8033325502203 558.1607519908576 322.7458915063863Q561.8161046654486 326.71456012451364 567.1685853675283 328.9599910531909Q572.5471757315693 331.20542198186826 579.3095781795625 331.20542198186826L579.3095781795625 331.20542198186826Q588.526288851924 331.20542198186826 595.3670202858015 326.8973277582432Q602.2338613816402 322.5631238726567 605.9936527040766 314.49523832659526L605.9936527040766 314.49523832659526L616.7247237701972 322.1975886051976Q612.0249846171516 332.1453698124773 602.0510937479107 338.2550307114365Q592.0772028786696 344.3646916103957 578.3696303489535 344.3646916103957ZM578.3696303489535 255.46129263195112L578.3696303489535 255.46129263195112Q572.1555308021489 255.46129263195112 567.0902563816442 257.62839457474433Q561.9988722991782 259.76938685557616 558.3435196245872 263.7380554737035Q554.6881669499962 267.6806144298695 552.5993939930871 273.03309513194915Q550.5367306981393 278.3855758340287 550.5367306981393 284.782443014563L550.5367306981393 284.782443014563L550.5367306981393 286.0879261126312L604.1137570428584 286.0879261126312L604.1137570428584 284.02526281768337Q604.1137570428584 271.04876082288547 597.0641483132902 263.268081558399Q590.0145395837219 255.46129263195112 578.3696303489535 255.46129263195112ZM726.8813875851922 352.8242220858777L726.8813875851922 352.8242220858777Q726.8813875851922 367.8633873756234 715.1320397025784 374.91299610519167Q703.3826918199645 381.96260483475993 679.8839960547369 381.96260483475993L679.8839960547369 381.96260483475993Q657.1424804863888 381.96260483475993 647.1685896171477 375.7746149499167Q637.1946987479066 369.5605154031121 637.1946987479066 358.09837380207324L637.1946987479066 358.09837380207324Q637.1946987479066 350.21325588974133 641.3461349997635 345.77461335630943Q645.471461589659 341.3620804848388 652.6255089670728 339.29941718989113L652.6255089670728 339.29941718989113L652.6255089670728 337.2367538949433Q643.9832108578613 333.0853176430865 643.9832108578613 323.68583933699546L643.9832108578613 323.68583933699546Q643.9832108578613 316.3751339878135 648.6829500109069 312.5109040175316Q653.3826891639524 308.6466740472497 660.6933945131343 306.76677838603143L660.6933945131343 306.76677838603143L660.6933945131343 306.03570785111333Q652.0510964039228 301.8842715992564 647.2730282649932 294.18192132065406Q642.4688504641022 286.4795710420516 642.4688504641022 276.322912539081L642.4688504641022 276.322912539081Q642.4688504641022 268.98609752793766 645.1059263221999 262.79810764309445Q647.7430021802977 256.5840080962898 652.5210703192273 252.17147522481926Q657.3252481201183 247.75894235334871 663.9832119202662 245.30463412898052Q670.6672853823753 242.85032590461228 678.9440482241278 242.85032590461228L678.9440482241278 242.85032590461228Q689.2834743608279 242.85032590461228 697.3513599068895 246.61011722704873L697.3513599068895 246.61011722704873L697.3513599068895 244.93909886152142Q697.3513599068895 239.2994118778668 699.9884357649872 235.61794954131446Q702.625511623085 231.9625968667235 708.6307338741988 231.9625968667235L708.6307338741988 231.9625968667235L723.1215962627558 231.9625968667235L723.1215962627558 245.12186649525097L704.6881749180327 245.12186649525097L704.6881749180327 251.30985638009423Q709.9623266342282 255.82682789941023 712.8604991119397 262.11925643209895Q715.7847812516125 268.4377946267491 715.7847812516125 276.322912539081L715.7847812516125 276.322912539081Q715.7847812516125 283.65972755022426 713.1477053935147 289.8477174350676Q710.5106295354169 296.0618169818722 705.7325613964873 300.4743498533428Q700.9283835955963 304.8868827248133 694.165981147603 307.3411909491815Q687.4035786996097 309.79549917354973 679.1268158578573 309.79549917354973L679.1268158578573 309.79549917354973Q674.4270767048118 309.79549917354973 669.7273375517663 308.85555134294066L669.7273375517663 308.85555134294066Q664.8448307649912 310.16103444100884 660.9022718088253 312.6936716512611Q656.9336031906979 315.2263088615135 656.9336031906979 319.7432803808294L656.9336031906979 319.7432803808294Q656.9336031906979 324.07748426641587 661.0850394425548 325.5657349982136Q665.2103660324503 327.08009539197275 671.7900008467141 327.08009539197275L671.7900008467141 327.08009539197275L692.4688531201144 327.08009539197275Q710.5106295354169 327.08009539197275 718.7090633912852 333.94693648781146Q726.8813875851922 340.8137775836503 726.8813875851922 352.8242220858777ZM712.7821701260556 353.97304721217773L712.7821701260556 353.97304721217773Q712.7821701260556 348.1244829328321 708.3696372545851 344.6518978919707Q703.9309947211532 341.1793128511093 692.6516207538439 341.1793128511093L692.6516207538439 341.1793128511093L660.3278592456752 341.1793128511093Q651.2939162070433 345.3046394410049 651.2939162070433 354.33858247963684L651.2939162070433 354.33858247963684Q651.2939162070433 360.735449660171 656.0980940079343 365.25242117948693Q660.9022718088253 369.74328303684166 672.364413409864 369.74328303684166L672.364413409864 369.74328303684166L686.2808632352711 369.74328303684166Q698.8657203006486 369.74328303684166 705.8108903823714 365.8007240806756Q712.7821701260556 361.85816512450964 712.7821701260556 353.97304721217773ZM679.1268158578573 297.7589450093609L679.1268158578573 297.7589450093609Q688.7090617976779 297.7589450093609 694.3487487813326 293.13753484219944Q699.9884357649872 288.5422343369994 699.9884357649872 278.9599883971788L699.9884357649872 278.9599883971788L699.9884357649872 273.68583668098324Q699.9884357649872 264.10359074116263 694.3487487813326 259.5082902359626Q688.7090617976779 254.88688006880113 679.1268158578573 254.88688006880113L679.1268158578573 254.88688006880113Q669.5445699180367 254.88688006880113 663.904882934382 259.5082902359626Q658.2651959507274 264.10359074116263 658.2651959507274 273.68583668098324L658.2651959507274 273.68583668098324L658.2651959507274 278.9599883971788Q658.2651959507274 288.5422343369994 663.904882934382 293.13753484219944Q669.5445699180367 297.7589450093609 679.1268158578573 297.7589450093609ZM826.5158576297574 352.8242220858777L826.5158576297574 352.8242220858777Q826.5158576297574 367.8633873756234 814.7665097471436 374.91299610519167Q803.0171618645297 381.96260483475993 779.5184660993021 381.96260483475993L779.5184660993021 381.96260483475993Q756.776950530954 381.96260483475993 746.803059661713 375.7746149499167Q736.8291687924719 369.5605154031121 736.8291687924719 358.09837380207324L736.8291687924719 358.09837380207324Q736.8291687924719 350.21325588974133 740.9806050443287 345.77461335630943Q745.1059316342242 341.3620804848388 752.259979011638 339.29941718989113L752.259979011638 339.29941718989113L752.259979011638 337.2367538949433Q743.6176809024265 333.0853176430865 743.6176809024265 323.68583933699546L743.6176809024265 323.68583933699546Q743.6176809024265 316.3751339878135 748.3174200554721 312.5109040175316Q753.0171592085176 308.6466740472497 760.3278645576995 306.76677838603143L760.3278645576995 306.76677838603143L760.3278645576995 306.03570785111333Q751.685566448488 301.8842715992564 746.9074983095584 294.18192132065406Q742.1033205086675 286.4795710420516 742.1033205086675 276.322912539081L742.1033205086675 276.322912539081Q742.1033205086675 268.98609752793766 744.7403963667651 262.79810764309445Q747.3774722248629 256.5840080962898 752.1555403637926 252.17147522481926Q756.9597181646835 247.75894235334871 763.6176819648314 245.30463412898052Q770.3017554269405 242.85032590461228 778.578518268693 242.85032590461228L778.578518268693 242.85032590461228Q788.9179444053932 242.85032590461228 796.9858299514547 246.61011722704873L796.9858299514547 246.61011722704873L796.9858299514547 244.93909886152142Q796.9858299514547 239.2994118778668 799.6229058095524 235.61794954131446Q802.2599816676502 231.9625968667235 808.2652039187639 231.9625968667235L808.2652039187639 231.9625968667235L822.756066307321 231.9625968667235L822.756066307321 245.12186649525097L804.322644962598 245.12186649525097L804.322644962598 251.30985638009423Q809.5967966787936 255.82682789941023 812.4949691565049 262.11925643209895Q815.4192512961777 268.4377946267491 815.4192512961777 276.322912539081L815.4192512961777 276.322912539081Q815.4192512961777 283.65972755022426 812.7821754380799 289.8477174350676Q810.1450995799822 296.0618169818722 805.3670314410525 300.4743498533428Q800.5628536401615 304.8868827248133 793.8004511921682 307.3411909491815Q787.038048744175 309.79549917354973 778.7612859024225 309.79549917354973L778.7612859024225 309.79549917354973Q774.061546749377 309.79549917354973 769.3618075963315 308.85555134294066L769.3618075963315 308.85555134294066Q764.4793008095564 310.16103444100884 760.5367418533905 312.6936716512611Q756.5680732352631 315.2263088615135 756.5680732352631 319.7432803808294L756.5680732352631 319.7432803808294Q756.5680732352631 324.07748426641587 760.71950948712 325.5657349982136Q764.8448360770155 327.08009539197275 771.4244708912793 327.08009539197275L771.4244708912793 327.08009539197275L792.1033231646796 327.08009539197275Q810.1450995799822 327.08009539197275 818.3435334358504 333.94693648781146Q826.5158576297574 340.8137775836503 826.5158576297574 352.8242220858777ZM812.4166401706208 353.97304721217773L812.4166401706208 353.97304721217773Q812.4166401706208 348.1244829328321 808.0041072991503 344.6518978919707Q803.5654647657185 341.1793128511093 792.2860907984092 341.1793128511093L792.2860907984092 341.1793128511093L759.9623292902404 341.1793128511093Q750.9283862516085 345.3046394410049 750.9283862516085 354.33858247963684L750.9283862516085 354.33858247963684Q750.9283862516085 360.735449660171 755.7325640524995 365.25242117948693Q760.5367418533905 369.74328303684166 771.9988834544292 369.74328303684166L771.9988834544292 369.74328303684166L785.9153332798363 369.74328303684166Q798.5001903452138 369.74328303684166 805.4453604269366 365.8007240806756Q812.4166401706208 361.85816512450964 812.4166401706208 353.97304721217773ZM778.7612859024225 297.7589450093609L778.7612859024225 297.7589450093609Q788.3435318422431 297.7589450093609 793.9832188258978 293.13753484219944Q799.6229058095524 288.5422343369994 799.6229058095524 278.9599883971788L799.6229058095524 278.9599883971788L799.6229058095524 273.68583668098324Q799.6229058095524 264.10359074116263 793.9832188258978 259.5082902359626Q788.3435318422431 254.88688006880113 778.7612859024225 254.88688006880113L778.7612859024225 254.88688006880113Q769.1790399626019 254.88688006880113 763.5393529789472 259.5082902359626Q757.8996659952927 264.10359074116263 757.8996659952927 273.68583668098324L757.8996659952927 273.68583668098324L757.8996659952927 278.9599883971788Q757.8996659952927 288.5422343369994 763.5393529789472 293.13753484219944Q769.1790399626019 297.7589450093609 778.7612859024225 297.7589450093609Z " fill="#3c1a5b" transform="matrix(1.058660911116939,0,0,1.058660911116939,0,-24.969291202407703)"/></g></svg>